<?xml version="1.0" encoding="iso-8859-1"?>
<!-- Generator: Adobe Illustrator 19.0.0, SVG Export Plug-In . SVG Version: 6.00 Build 0)  -->
<svg version="1.1" id="Capa_1" xmlns="http://www.w3.org/2000/svg" xmlns:xlink="http://www.w3.org/1999/xlink" x="0px" y="0px"
	 viewBox="0 0 384 384" style="enable-background:new 0 0 384 384;" xml:space="preserve">
<g>
	<g>
		<path d="M291.718,117.137L336,64l-32-48h-96l-32,48l44.332,53.2c-10.09,2.926-19.66,7.065-28.562,12.233
			C172.957,118.537,151.305,112,128,112C57.309,112,0,169.308,0,240s57.309,128,128,128c23.45,0,45.351-6.411,64.254-17.419
			C211.062,361.468,232.707,368,256,368c70.691,0,128-57.308,128-128C384,181.716,345.016,132.606,291.718,117.137z M295.172,88
			h-16.774l6.402-16h23.703L295.172,88z M301.183,40.618L311.438,56h-20.516L301.183,40.618z M287.699,32L277.18,47.77L266.668,32
			H287.699z M267.57,72l-6.402,16h-10.336l-6.402-16H267.57z M256,44.845L263.438,56h-14.875L256,44.845z M245.332,32L234.82,47.77
			L224.301,32H245.332z M210.817,40.618L221.078,56h-20.516L210.817,40.618z M216.828,88l-13.332-16h23.703l6.402,16H216.828z
			 M128,352c-61.758,0-112-50.243-112-112s50.242-112,112-112c17.586,0,34.106,4.305,48.926,11.57
			c-4.574,3.594-8.863,7.51-12.902,11.682C152.879,146.695,140.782,144,128,144c-53.019,0-96,42.981-96,96c0,53.019,42.981,96,96,96
			c53.019,0,96-42.981,96-96c0-22.543-7.813-43.233-20.832-59.603c3.969-3.522,8.262-6.606,12.875-9.292
			C230.988,190.12,240,213.993,240,240C240,301.757,189.758,352,128,352z M152.883,164.375C137.278,185.547,128,211.661,128,240
			c0,28.336,9.305,54.439,24.902,75.634C145.016,318.242,136.746,320,128,320c-44.114,0-80-35.888-80-80s35.886-80,80-80
			C136.742,160,145.004,161.762,152.883,164.375z M192.149,287.326C182.211,274.038,176,257.834,176,240
			c0-17.766,6.016-34.037,15.851-47.328C201.789,205.961,208,222.165,208,240C208,257.766,201.984,274.036,192.149,287.326z
			 M231.098,164.366C238.984,161.758,247.254,160,256,160c44.114,0,80,35.888,80,80s-35.886,80-80,80
			c-8.746,0-17.012-1.764-24.89-4.379C246.687,294.419,256,268.328,256,240C256,211.664,246.695,185.561,231.098,164.366z M256,352
			c-17.554,0-34.05-4.291-48.848-11.532c4.57-3.606,8.886-7.495,12.922-11.678c11.118,4.53,23.18,7.21,35.926,7.21
			c53.019,0,96-42.981,96-96c0-53.026-43.64-96-96-96c-52.996,0-96,43.516-96,96c0,22.544,7.817,43.231,20.836,59.603
			c-3.969,3.522-8.266,6.606-12.879,9.292C153.012,289.88,144,266.007,144,240c0-53.973,39.058-100.631,92.169-110.105
			c2.805-0.5,5.132-2.454,6.11-5.13c0.978-2.676,0.462-5.673-1.362-7.862L230.164,104h51.672l-10.751,12.902
			c-1.826,2.19-2.347,5.187-1.369,7.866s3.309,4.626,6.116,5.127C328.987,139.374,368,186.087,368,240
			C368,301.757,317.758,352,256,352z"/>
	</g>
</g>
<g>
</g>
<g>
</g>
<g>
</g>
<g>
</g>
<g>
</g>
<g>
</g>
<g>
</g>
<g>
</g>
<g>
</g>
<g>
</g>
<g>
</g>
<g>
</g>
<g>
</g>
<g>
</g>
<g>
</g>
</svg>
